<svg width="101" height="55" viewBox="0 0 101 55" fill="none" xmlns="http://www.w3.org/2000/svg">
<g clip-path="url(#clip0_109_3389)">
<path d="M3.27222 33.5769C5.37264 32.1706 8.2114 32.7363 9.61597 34.8464V34.8474C9.79969 35.1248 9.9474 35.4126 10.0632 35.7039V35.7341L10.1609 35.9656C10.4823 36.7247 10.8763 37.466 11.3503 38.1785C14.0248 42.1994 18.7789 44.6272 23.3464 44.3201L23.4275 44.3142L23.5046 44.2986C23.5057 44.2984 23.5072 44.2988 23.5085 44.2986C23.514 44.2978 23.5203 44.2968 23.5291 44.2957L23.5408 44.2947L23.5525 44.2927C24.1693 44.198 24.7721 43.8913 25.196 43.4031C25.506 43.0461 25.7274 42.5731 25.7507 42.0427C25.8365 42.8208 26.0399 43.5935 26.3708 44.3318V44.3328C26.5513 44.7375 26.8322 45.0272 27.0828 45.2253V45.2263C27.4051 45.4828 27.9534 46.1361 28.2664 46.6072H28.2673C29.6732 48.722 29.1031 51.5784 26.9998 52.9871C24.8986 54.3941 22.0582 53.8276 20.6541 51.7156H20.655C20.3602 51.2718 19.9767 50.5422 19.865 50.1746L19.8435 50.1042L19.8132 50.0369L19.5759 49.5261C19.3263 49.0196 19.041 48.5242 18.7224 48.0427L18.7214 48.0408L18.4675 47.6726C15.7895 43.9226 11.2679 41.6528 6.89819 41.8894L6.80835 41.8943L6.72046 41.9119C4.95329 42.2694 3.06751 41.555 2.00464 39.9568C0.598646 37.8419 1.16861 34.9856 3.27222 33.5769ZM26.8171 19.5525C27.3124 17.06 29.7257 15.4482 32.2 15.9431C34.6759 16.4387 36.2909 18.8601 35.7937 21.3533C35.7027 21.8096 35.5481 22.2361 35.3425 22.6238L35.3074 22.6892L35.281 22.7595C35.0132 23.4563 34.8003 24.1853 34.6492 24.9412L34.6482 24.9421C33.7092 29.664 35.4225 34.2985 38.7468 37.2937L38.8142 37.3542L38.8884 37.4041C40.3915 38.4067 41.2224 40.2541 40.8484 42.1394C40.3531 44.632 37.9399 46.2438 35.4656 45.7488H35.4646C33.6591 45.388 32.3099 44.0015 31.905 42.3054L31.8367 41.9626C31.7674 41.523 31.5754 40.9821 31.1169 40.5593H31.116C30.7403 40.209 30.335 39.9023 29.907 39.6404C31.0539 39.9867 32.2556 39.2595 32.6121 38.155V38.1541C32.7593 37.6963 32.8988 37.2047 32.988 36.7546C33.9395 31.9724 32.1688 27.2784 28.7576 24.2859L28.7107 24.2439L28.6589 24.2078L28.3982 24.0076C27.1658 22.99 26.5071 21.3594 26.7908 19.6833L26.8171 19.5525ZM23.9363 35.1082C24.6898 34.6031 25.6768 34.7159 26.2986 35.3328L26.3005 35.3347C26.347 35.3807 26.3909 35.429 26.4324 35.4792L26.5496 35.6365C26.6575 35.8001 26.7365 35.9694 26.7888 36.1404L26.8103 36.2107L26.8396 36.2781C27.0146 36.6753 27.2268 37.0626 27.4724 37.4324C27.9397 38.1359 28.5084 38.741 29.1492 39.2351C28.9682 39.1507 28.7847 39.0725 28.5984 39.0027L28.5974 39.0017L28.4675 38.9578C27.1271 38.5487 25.7551 39.5133 25.7068 40.9392C25.6998 41.1391 25.7029 41.3394 25.7117 41.5398C25.698 41.4697 25.6831 41.3982 25.6619 41.3269L25.6609 41.3259C25.4492 40.6186 25.1324 39.9275 24.699 39.2791C24.4269 38.8698 24.1188 38.49 23.781 38.1482L23.5457 37.9099C23.4995 37.8549 23.4558 37.7974 23.4158 37.7371L23.3162 37.5701C22.8973 36.7765 23.0947 35.793 23.782 35.2234L23.9363 35.1082Z" fill="#10131C" stroke="#10131C" stroke-width="2.47377"/>
<path d="M82.125 41.1663C83.0184 39.0543 85.4476 38.0736 87.5449 38.969L87.5459 38.97C89.6451 39.8647 90.63 42.3043 89.7344 44.4182L89.7334 44.4192C88.84 46.5311 86.4118 47.5118 84.3145 46.6165H84.3135C82.2138 45.7218 81.2289 43.2814 82.125 41.1672V41.1663Z" fill="#10131C" stroke="#10131C" stroke-width="2.47377"/>
<path d="M91.7505 18.4592C92.6459 16.3469 95.0724 15.3681 97.1704 16.262L97.2573 16.2991C99.2966 17.2254 100.24 19.6233 99.3589 21.7083C99.1618 22.1726 98.8272 22.6518 98.436 23.052C98.0334 23.4639 97.6556 23.7077 97.4272 23.7932L97.3647 23.8157L97.3198 23.8381C97.3131 23.8414 97.3052 23.8449 97.2974 23.8489C97.2602 23.8675 97.1741 23.9131 97.0747 23.9924C96.3117 24.5996 95.6241 25.1151 95.144 25.6643C94.5827 26.3067 94.2929 26.9884 94.1313 27.8997C94.0118 28.5733 94.0697 29.2088 94.1655 29.7561C94.254 30.2612 94.4096 30.8491 94.4946 31.2317C94.6522 31.946 94.624 32.7055 94.3794 33.4407L94.2612 33.7551C93.3654 35.8666 90.9389 36.8452 88.8413 35.9514H88.8423C86.8077 35.0828 85.8209 32.7671 86.5747 30.7004L86.6538 30.5012C87.0031 29.6745 87.5865 29.0227 88.2915 28.5891C88.6195 28.3874 89.1405 28.0942 89.5581 27.8108C90.0106 27.5037 90.4998 27.1099 90.897 26.5657L90.8979 26.5647C91.3387 25.9599 91.6322 25.3788 91.7642 24.6946C91.8884 24.0501 91.8503 23.3972 91.7866 22.717C91.747 22.2919 91.6726 21.882 91.6069 21.5276C91.5725 21.3419 91.5407 21.1715 91.5132 21.009L91.4448 20.5374C91.369 19.8538 91.4618 19.1421 91.7505 18.4592Z" fill="#10131C" stroke="#10131C" stroke-width="2.47377"/>
<path d="M90.8727 44.9014C89.7137 47.6411 86.5585 48.9195 83.8287 47.754C81.0988 46.5908 79.8251 43.4242 80.9863 40.6845C82.1453 37.9448 85.3005 36.6664 88.0304 37.8319C90.7602 38.9951 92.034 42.1617 90.8727 44.9014Z" fill="#10131C" stroke="#10131C" stroke-width="1.58322"/>
<path d="M97.6556 15.1239C94.9257 13.9607 91.7728 15.2368 90.6115 17.9765C90.238 18.8597 90.1164 19.7857 90.2155 20.6756C90.2965 21.3984 90.4878 22.1076 90.5553 22.8326C90.6813 24.1787 90.6341 24.827 89.8981 25.8366C89.3378 26.6045 88.4511 27.0382 87.6431 27.5351C86.7249 28.0997 85.9665 28.949 85.5142 30.0196C84.3552 32.7593 85.6267 35.9236 88.3565 37.0891C91.0864 38.2523 94.2393 36.9762 95.4006 34.2364C95.8552 33.1613 95.9362 32.023 95.7022 30.9637C95.4929 30.0218 95.1801 29.0664 95.3488 28.1155C95.6099 26.6429 96.1928 26.2748 97.8446 24.9602C97.8491 24.9557 97.8559 24.9535 97.8604 24.9512C98.7718 24.6101 99.9624 23.4537 100.498 22.1911C101.657 19.4514 100.385 16.2871 97.6556 15.1216V15.1239Z" fill="#10131C" stroke="#10131C" stroke-width="1.58322"/>
<path d="M37.0813 1.95584C33.7438 3.62497 32.3868 7.69277 34.0499 11.0423C34.7048 12.3591 35.7288 13.371 36.9328 14.0079C36.971 14.0282 37.007 14.0463 37.0453 14.0666C40.286 15.7696 42.6085 19.0153 43.0181 22.8572C43.0496 23.1418 43.0384 23.4355 43.0789 23.7246C43.1419 24.1944 43.2859 24.5828 43.4907 24.9939C43.862 25.7393 44.3684 26.1955 45.0593 26.7624C47.6249 29.274 48.9234 32.9488 48.3135 36.671C48.0457 38.0782 48.2168 39.5802 48.9032 40.9602C50.5663 44.3097 54.6194 45.6717 57.9569 44.0026C61.2944 42.3334 62.6514 38.2656 60.9883 34.9161C60.3132 33.5587 59.2464 32.5265 57.9952 31.8918C56.4558 31.0809 55.1663 29.9494 54.1783 28.6168C53.3006 27.4332 53.9263 25.8183 55.3238 25.3598C57.4843 24.6506 59.7821 24.2395 62.1721 24.1785C64.8862 24.1085 67.535 24.506 70.0353 25.2966C71.4396 25.7415 72.09 27.8036 71.2258 28.9985C70.3414 30.2204 69.2026 31.2797 67.8456 32.0883C66.6281 32.7885 65.6153 33.8726 65.0122 35.2639C63.5246 38.6948 65.091 42.688 68.5095 44.181C71.928 45.674 75.9069 44.102 77.3944 40.6711C78.0066 39.2572 78.1011 37.7484 77.7613 36.3571C76.9601 32.671 78.0673 28.4812 80.4979 25.8409C81.2203 25.1294 81.6411 24.7568 81.9719 23.9933C82.1542 23.5732 82.2555 23.2164 82.3185 22.7037C82.3523 22.4123 82.3185 22.1209 82.3343 21.8341C82.5458 17.9763 84.6995 14.6132 87.8457 12.7453C87.8817 12.7228 87.9177 12.7024 87.956 12.6821C89.1263 11.9819 90.0962 10.9204 90.6814 9.5697C92.1689 6.13883 90.6026 2.14557 87.1841 0.65261C83.7656 -0.840347 79.7867 0.731663 78.2991 4.16253C77.6915 5.56288 77.5925 7.05358 77.921 8.43361C78.5984 11.4082 77.9886 14.3738 76.465 16.8041C72.5874 20.7477 67.9243 21.3982 62.7955 21.5314C58.245 21.6489 53.6404 21.3394 49.9946 18.6359C48.8874 17.816 48.0007 16.716 47.4583 15.4467C46.6459 13.5449 46.3556 11.415 46.7337 9.24671C46.9902 7.85314 46.8147 6.36695 46.135 5.00274C44.4719 1.65319 40.4188 0.291229 37.0813 1.96036V1.95584Z" fill="#10131C" stroke="#10131C" stroke-width="1.95428"/>
</g>
<defs>
<clipPath id="clip0_109_3389">
<rect width="101" height="55" fill="white"/>
</clipPath>
</defs>
</svg>
